# xmcd
#
# Track frame offsets:
#	150
#	6105
#	11865
#	15324
#	23964
#	29539
#	38692
#	43493
#	46870
#	51512
#	55071
#	59183
#	64583
#	68946
#	74704
#	80658
#	91554
#	97837
#	101968
#	106947
#	115030
#	118608
#	124129
#	131585
#	142128
#	151870
#	159982
#	168554
#	176268
#	184624
#	192939
#	198751
#	204476
#
# Disc length: 2882 seconds
#
# Revision: 0
# Processed by: cddbd v1.5.2PL0 Copyright (c) Steve Scherf et al.
# Submitted via: dBpowerAMP V4.0
#
DISCID=cd0b4021
DTITLE=Verskeie Kunstenaars - 101 Grootste Love Songs
DYEAR=1900
DGENRE=
TTITLE0=Jou Hart is Weer Myne
TTITLE1=Met Jou IN My Lewe
TTITLE2=Op Die Vlerke Van 'n Spierwit Duif
TTITLE3=I Know Him So Well
TTITLE4=The Sweetest Days
TTITLE5=I Finally Found Someone
TTITLE6=Ek's Lief Vir Jou
TTITLE7=Hierdie Nag
TTITLE8=Aan Jou Vas
TTITLE9='N Duisend Soene
TTITLE10=Kaapse Draai
TTITLE11=Kiss You All Over
TTITLE12=It Must Be Love
TTITLE13=Soos Bloed
TTITLE14=Tussen Die Lyne
TTITLE15=Jakarandastrate
TTITLE16=Please Forgive Me
TTITLE17=Miss You Nights
TTITLE18=Thank You For Loving Me
TTITLE19=Lady In Red
TTITLE20=Here I AM
TTITLE21=Feel
TTITLE22=Can't Stop Loving You
TTITLE23=Amper
TTITLE24=Wag-'n-Bietjiebos
TTITLE25=Vreemde Stad
TTITLE26=Islands IN THe Steam
TTITLE27=Lost IN France
TTITLE28=Transkaroo
TTITLE29=Hanne
TTITLE30=Give Me Back My Love
TTITLE31=The Part Of Me That Needs You Most
TTITLE32=Baby Youve Been Good To Me
EXTD=
EXTT0=
EXTT1=
EXTT2=
EXTT3=
EXTT4=
EXTT5=
EXTT6=
EXTT7=
EXTT8=
EXTT9=
EXTT10=
EXTT11=
EXTT12=
EXTT13=
EXTT14=
EXTT15=
EXTT16=
EXTT17=
EXTT18=
EXTT19=
EXTT20=
EXTT21=
EXTT22=
EXTT23=
EXTT24=
EXTT25=
EXTT26=
EXTT27=
EXTT28=
EXTT29=
EXTT30=
EXTT31=
EXTT32=
PLAYORDER=
